<?xml version="1.0" standalone="no"?>
<!DOCTYPE svg PUBLIC "-//W3C//DTD SVG 20010904//EN"
 "http://www.w3.org/TR/2001/REC-SVG-20010904/DTD/svg10.dtd">
<svg version="1.0" xmlns="http://www.w3.org/2000/svg"
 width="300.000000pt" height="300.000000pt" viewBox="0 0 300.000000 300.000000"
 preserveAspectRatio="xMidYMid meet">
<metadata>
Created by potrace 1.11, written by Peter Selinger 2001-2013
</metadata>
<g transform="translate(0.000000,300.000000) scale(0.100000,-0.100000)"
fill="#000000" stroke="none">
<path d="M1317 2966 c-127 -46 -187 -109 -187 -196 0 -56 29 -89 105 -117 82
-30 97 -94 32 -134 -30 -18 -54 -19 -387 -19 -264 0 -359 -3 -368 -12 -9 -9
-12 -105 -12 -370 0 -302 -2 -364 -15 -388 -33 -64 -105 -42 -136 41 -26 69
-59 99 -108 99 -91 0 -159 -60 -201 -177 -22 -61 -25 -83 -24 -208 1 -121 4
-148 24 -199 39 -102 114 -166 194 -166 46 0 75 26 111 101 45 96 98 106 137
28 16 -30 18 -70 18 -380 0 -310 2 -348 16 -360 14 -11 91 -15 378 -17 388 -4
399 -5 412 -56 9 -38 -12 -64 -80 -95 -71 -32 -96 -60 -96 -109 0 -76 56 -143
159 -191 51 -23 70 -26 214 -29 l157 -4 68 32 c108 50 152 103 152 182 0 58
-17 80 -90 112 -68 31 -95 63 -86 102 13 50 42 54 419 54 280 0 347 3 363 14
18 14 19 32 22 384 3 352 4 371 23 391 40 43 97 19 119 -50 19 -57 69 -109
105 -109 88 0 159 58 205 166 21 51 25 78 28 204 3 130 1 151 -18 203 -44 117
-112 177 -201 177 -55 0 -71 -14 -114 -103 -22 -46 -36 -63 -54 -65 -40 -6
-68 7 -79 35 -6 17 -12 170 -15 387 -3 291 -7 360 -18 367 -8 5 -173 9 -367 9
-386 0 -405 3 -418 57 -10 38 4 54 76 89 35 17 72 41 82 54 41 51 9 158 -63
207 -83 57 -151 76 -289 80 -113 3 -131 1 -193 -21z m-184 -946 c174 -28 293
-146 322 -318 l7 -43 -107 3 -108 3 -12 47 c-25 100 -70 132 -185 133 -62 0
-80 -4 -107 -23 -83 -59 -107 -143 -101 -358 4 -143 5 -154 33 -210 37 -73 89
-104 175 -104 104 1 172 52 186 143 l7 37 109 0 110 0 -7 -42 c-19 -116 -109
-235 -212 -279 -169 -72 -396 -34 -500 85 -49 57 -100 168 -113 246 -14 93
-12 253 5 333 39 185 152 308 315 343 69 15 110 16 183 4z m1038 -38 c76 -30
142 -90 176 -160 25 -51 28 -68 28 -152 -1 -83 -4 -101 -27 -146 -34 -64 -94
-117 -167 -146 -47 -19 -81 -23 -213 -26 l-158 -4 0 -179 0 -179 -110 0 -110
0 0 511 0 510 263 -3 c245 -3 266 -5 318 -26z"/>
<path d="M1810 1680 l0 -162 128 4 c104 2 133 7 159 23 89 53 82 215 -10 271
-26 15 -56 20 -154 22 l-123 4 0 -162z"/>
</g>
</svg>
