<?xml version="1.0" encoding="UTF-8" standalone="no"?>
<svg
   xmlns:dc="http://purl.org/dc/elements/1.1/"
   xmlns:cc="http://creativecommons.org/ns#"
   xmlns:rdf="http://www.w3.org/1999/02/22-rdf-syntax-ns#"
   xmlns:svg="http://www.w3.org/2000/svg"
   xmlns="http://www.w3.org/2000/svg"
   xmlns:sodipodi="http://sodipodi.sourceforge.net/DTD/sodipodi-0.dtd"
   xmlns:inkscape="http://www.inkscape.org/namespaces/inkscape"
   width="1773"
   height="2500"
   viewBox="0 0 256 361"
   preserveAspectRatio="xMidYMid"
   version="1.1"
   id="svg216"
   sodipodi:docname="css-3.svg"
   inkscape:version="1.0.1 (c497b03c, 2020-09-10)">
  <metadata
     id="metadata222">
    <rdf:RDF>
      <cc:Work
         rdf:about="">
        <dc:format>image/svg+xml</dc:format>
        <dc:type
           rdf:resource="http://purl.org/dc/dcmitype/StillImage" />
      </cc:Work>
    </rdf:RDF>
  </metadata>
  <defs
     id="defs220" />
  <sodipodi:namedview
     pagecolor="#ffffff"
     bordercolor="#666666"
     borderopacity="1"
     objecttolerance="10"
     gridtolerance="10"
     guidetolerance="10"
     inkscape:pageopacity="0"
     inkscape:pageshadow="2"
     inkscape:window-width="1098"
     inkscape:window-height="818"
     id="namedview218"
     showgrid="false"
     inkscape:zoom="0.064363179"
     inkscape:cx="85.430878"
     inkscape:cy="3777.6999"
     inkscape:window-x="0"
     inkscape:window-y="23"
     inkscape:window-maximized="0"
     inkscape:current-layer="svg216"
     inkscape:document-rotation="0" />
  <path
     d="M 127.844,325.7208 23.662,296.7988 0.445,36.3988 h 255.11 l -23.241,260.36 z"
     fill="#264de4"
     id="path206" />
  <path
     d="m 212.417,280.1798 19.86,-222.49 H 128 v 245.893 z"
     fill="#2965f1"
     id="path208" />
  <path
     d="m 53.669,154.2688 2.862,31.937 H 128 v -31.937 z m -5.752,-64.641 2.903,31.937 H 128 v -31.937 z m 80.083,147.585 -0.14,0.037 -35.568,-9.604 -2.274,-25.471 h -32.06 l 4.474,50.146 65.421,18.16 0.147,-0.04 z"
     fill="#ebebeb"
     id="path210" />
  <path
     d="m 202.127,154.2688 5.765,-64.641 H 127.89 v 31.937 h 45.002 l -2.906,32.704 H 127.89 v 31.937 h 39.327 l -3.708,41.42 -35.62,9.614 v 33.226 l 65.473,-18.145 0.48,-5.396 7.506,-84.08 z"
     fill="#ffffff"
     id="path214" />
</svg>
